<?xml version="1.0" encoding="UTF-8"?>
<svg xmlns="http://www.w3.org/2000/svg" xmlns:xlink="http://www.w3.org/1999/xlink" width="512px" height="512px" viewBox="0 0 512 512" version="1.1">
<g id="surface1">
<path style=" stroke:none;fill-rule:nonzero;fill:rgb(100%,23.921569%,0%);fill-opacity:1;" d="M 391.378906 123.699219 L 379.917969 135.167969 C 359.507812 120.027344 331.089844 122.097656 313.09375 140.042969 C 296.957031 156.261719 293.472656 181.195312 304.550781 201.214844 C 311.144531 213.03125 308.980469 228.054688 299.292969 237.746094 L 121.875 415.15625 L 113.933594 400.230469 L 287.859375 226.304688 C 292.445312 221.769531 293.488281 214.753906 290.417969 209.082031 C 283.402344 196.394531 280.628906 181.796875 282.507812 167.425781 C 284.417969 152.601562 291.246094 138.851562 301.898438 128.367188 C 326.234375 104.277344 364.808594 102.792969 391.378906 123.699219 Z M 391.378906 123.699219 "/>
<path style="fill-rule:nonzero;fill:rgb(70.196078%,72.156863%,73.72549%);fill-opacity:1;stroke-width:1;stroke-linecap:butt;stroke-linejoin:miter;stroke:rgb(0%,0%,0%);stroke-opacity:1;stroke-miterlimit:10;" d="M 3645.233154 1186.157227 L 3277.557373 818.450928 C 3021.270752 562.164307 2605.163574 559.234619 2350.006104 811.920166 C 2246.582031 913.665771 2180.236816 1047.180176 2161.590576 1191.070557 C 2143.951416 1326.477051 2168.762207 1464.019775 2232.60498 1584.716797 L 848.266602 2968.994141 L 847.53418 2969.75708 C 828.24707 2989.074707 803.955078 3002.624512 777.404785 3008.911133 L 385.406494 3102.081299 C 354.919434 3109.161377 334.014893 3137.237549 335.998535 3168.487549 L 345.733643 3316.009521 C 347.839355 3349.79248 375.88501 3376.068115 409.729004 3376.00708 L 868.225098 3376.00708 C 940.551758 3376.220703 1009.979248 3347.747803 1061.37085 3296.875 L 1062.927246 3295.349121 L 1063.690186 3294.586182 L 2510.162354 1847.991943 C 2626.159668 1731.994629 2651.763916 1552.001953 2572.509766 1409.759521 C 2513.702393 1303.375244 2532.25708 1170.959473 2618.011475 1084.80835 C 2724.42627 978.729248 2896.606445 978.729248 3003.051758 1084.80835 L 3005.187988 1086.853027 L 3005.523682 1087.127686 C 3008.148193 1089.508057 3011.016846 1091.674805 3014.038086 1093.566895 L 3029.571533 1103.363037 L 3029.754639 1103.363037 L 3470.153809 1381.04248 C 3495.452881 1397.003174 3528.411865 1393.310547 3549.560547 1372.161865 L 3645.080566 1276.641846 C 3670.10498 1251.678467 3670.166016 1211.181641 3645.233154 1186.157227 Z M 3495.361328 1245.574951 L 3155.36499 1031.188965 L 3088.226318 988.891602 C 2929.077148 835.418701 2675.65918 840.026855 2522.186279 999.176025 C 2399.841309 1126.068115 2374.87793 1318.054199 2460.723877 1471.984863 C 2512.237549 1564.331055 2495.330811 1681.671143 2419.647217 1757.385254 L 1033.569336 3143.4021 L 972.412109 3204.559326 C 944.854736 3232.208252 907.440186 3247.741699 868.408203 3247.680664 L 469.573975 3247.680664 L 467.346191 3214.111328 L 806.945801 3133.483887 C 856.5979 3121.704102 901.977539 3096.374512 938.049316 3060.272217 L 2330.322266 1667.999268 C 2366.149902 1632.568359 2374.298096 1577.758789 2350.311279 1533.447266 C 2295.501709 1434.326172 2273.834229 1320.3125 2288.513184 1208.007812 C 2303.436279 1092.224121 2356.781006 984.771729 2440.002441 902.893066 C 2630.0354 714.691162 2931.396484 703.094482 3139.007568 866.394043 C 3155.853271 879.608154 3171.875 893.829346 3187.011719 908.966064 L 3509.429932 1231.414795 Z M 3495.361328 1245.574951 " transform="matrix(0.128,0,0,0.128,0,0)"/>
<path style="fill-rule:nonzero;fill:rgb(70.196078%,72.156863%,73.72549%);fill-opacity:1;stroke-width:1;stroke-linecap:butt;stroke-linejoin:miter;stroke:rgb(0%,0%,0%);stroke-opacity:1;stroke-miterlimit:10;" d="M 3277.557373 908.966064 L 3232.330322 954.25415 L 3155.36499 1031.158447 L 3097.808838 1088.745117 C 3079.986572 1106.5979 3053.375244 1112.304688 3029.785156 1103.363037 L 3029.602051 1103.363037 L 3005.615234 1087.127686 L 3005.279541 1086.853027 C 2982.23877 1061.584473 2983.154297 1022.674561 3007.324219 998.474121 L 3049.530029 955.993652 L 3139.068604 866.394043 L 3187.072754 818.389893 C 3212.06665 793.395996 3252.593994 793.395996 3277.587891 818.389893 C 3302.612305 843.414307 3302.612305 883.911133 3277.587891 908.905029 Z M 3277.557373 908.966064 " transform="matrix(0.128,0,0,0.128,0,0)"/>
<path style="fill-rule:nonzero;fill:rgb(70.196078%,72.156863%,73.72549%);fill-opacity:1;stroke-width:1;stroke-linecap:butt;stroke-linejoin:miter;stroke:rgb(0%,0%,0%);stroke-opacity:1;stroke-miterlimit:10;" d="M 1063.690186 3294.281006 L 1062.927246 3295.043945 L 1061.37085 3296.569824 C 1057.281494 3300.415039 1052.67334 3303.68042 1047.729492 3306.304932 C 1016.540527 3322.937012 977.813721 3311.157227 961.151123 3279.998779 L 935.48584 3231.689453 L 870.666504 3109.893799 L 836.273193 3045.227051 C 823.059082 3020.385742 827.606201 2989.807129 847.53418 2969.909668 L 848.266602 2969.146729 C 852.600098 2965.026855 857.452393 2961.486816 862.731934 2958.679199 C 893.920898 2942.077637 932.678223 2953.918457 949.279785 2985.107422 L 971.5271 3026.947021 L 1033.569336 3143.554688 L 1074.157715 3219.909668 C 1087.097168 3244.384766 1082.885742 3274.353027 1063.690186 3294.281006 Z M 1063.690186 3294.281006 " transform="matrix(0.128,0,0,0.128,0,0)"/>
</g>
</svg>
